<?xml version="1.0" encoding="UTF-8"?>
<svg id="Calque_2" data-name="Calque 2" xmlns="http://www.w3.org/2000/svg" viewBox="0 0 379.22 362.47">
  <defs>
    <style>
      .cls-1 {
        fill: #fff;
      }

      .cls-2 {
        fill: none;
      }

      .cls-3 {
        fill: #dfdfdf;
      }

      .cls-4 {
        fill: #a3d977;
      }
    </style>
  </defs>
  <g id="LOGO_3E_RANGÉE" data-name="LOGO 3E RANGÉE">
    <g id="Calque_5" data-name="Calque 5">
      <g>
        <path class="cls-3" d="M367.1,0H11.99C5.69-.06.17,4.35.01,10.88c-.24,10.07,2.64,24.28,6.18,33.72,8.6,22.93,29.25,40.66,51.74,49.48,7.64,3,14.81,3.64,21.41,9.2,10.37,8.76,9.62,21.17,13.57,32.96,11.51,34.36,42.56,57.24,77.58,63.63,1.39.25,9.76,1.12,9.89,1.61.08,34.02-.75,67.96-.41,102-.69,7.19-13.74,10.05-19.52,11.08-15.85,2.84-51.8,4.57-57.11,23.71-5.24,18.89,20.2,21.95,33.15,22.93,27.7,2.1,58.64,1.12,86.5.4,13.5-.35,63.91,1.05,52.54-25.16-7.57-17.46-40.39-18.96-56.48-21.88-5.71-1.03-18.85-4.04-19.53-11.08.31-34.26-.34-68.44-.39-102.67,39.02-1.2,78.6-30.87,89.08-68.66,1.55-5.58,1.97-11.39,3.97-16.85,6.19-16.92,21.51-17.66,35.79-24.2,27.83-12.75,46.43-37.1,50.28-67.67,1.39-11.07,3.43-22.49-11.15-23.43ZM200.2,327.98c.35.15.71.3,1.08.44h0c.22.09.44.18.67.26.82.32,1.66.61,2.51.87.32.1.64.2.96.3.02,0,.03.01.05.01.36.11.72.22,1.09.32.32.09.63.18.95.26.96.25,1.92.49,2.89.7,1.01.23,2.02.44,3.05.63.64.12,1.27.24,1.91.35s1.29.22,1.93.32c.64.1,1.29.2,1.93.3.64.1,1.29.19,1.94.28.77.11,1.55.21,2.32.32.77.1,1.55.21,2.31.31,1.03.13,2.05.27,3.07.41.02,0,.03.01.05.01,1.03.14,2.06.28,3.08.44,1.05.15,2.08.31,3.1.49.42.06.84.14,1.26.21.32.06.65.12.99.18.29.05.58.1.87.15,2.17.4,4.54.85,6.87,1.4.34.07.67.15,1.01.24.37.09.74.18,1.11.28.73.19,1.46.39,2.16.61s1.39.44,2.04.68c.65.23,1.28.48,1.87.75.03,0,.08.04.14.07.35.16,1.17.53,1.79.94.14.1.28.19.39.29.06.05.12.1.16.15.03.04.07.08.09.11.03.04.05.07.06.1.03.05.05.09.05.13.03.11,0,.22-.1.32-8.84,1.42-17.8,1.6-26.73,2.05-24.24,1.22-48.41,1.21-72.63.39-9.31-.31-19.33-.36-28.54-1.66-.45-.07-5.3-.77-4.74-1.58,21.01-10.03,47.85-4.06,66.68-19.16.35.31.7.6,1.06.89.26.22.52.42.79.62.23.18.46.35.7.52.02.02.03.03.05.04.34.25.69.49,1.04.72.42.28.85.55,1.28.81.36.23.73.44,1.11.65.35.21.71.4,1.08.58.25.14.5.27.76.39.04.03.09.05.13.07.26.13.53.25.79.37.5.24,1,.46,1.51.67ZM271.34,123.04c-21.65,79.05-139.05,79.72-162.51,2.18-3.32-10.98-3.95-20.98-11.74-30.3-10.46-12.52-22.28-13.86-36.31-19.61-.39-.16-.94-.04-.81-.6,5.51-1.72,11.06-3.48,16.72-4.7,22.44-4.89,47.25-3.69,69.19,3.05,13.8,4.24,26.49,11.3,39.98,16.34,29.22,10.92,60.38,15.79,91.63,13.47-3.5,6.25-4.29,13.41-6.15,20.17ZM349.22,50.4c-.52.76-1.07,1.51-1.62,2.25-.56.73-1.13,1.45-1.72,2.16-1.18,1.42-2.42,2.78-3.72,4.1-10.72,10.81-25.4,18.04-41.74,21.79-30.09,6.91-62.38,5.26-91.9-3.34-25.34-7.39-47.25-21.18-73.46-26.13-3.14-.59-6.33-1.1-9.53-1.52-1.28-.17-2.57-.33-3.86-.46-.65-.07-1.29-.14-1.94-.2-2.59-.25-5.18-.44-7.79-.56-2.61-.12-5.23-.19-7.85-.19-3.4,0-6.81.11-10.21.33-.86.06-1.72.12-2.58.19-4.24.36-8.46.89-12.64,1.62-.84.14-1.68.3-2.52.46-1.66.32-3.32.67-4.97,1.06-2.48.58-4.93,1.23-7.36,1.95-1.3.38-2.58.79-3.86,1.22-1.29.43-2.56.88-3.82,1.35-1.26.47-2.52.97-3.76,1.48-.62.26-1.24.52-1.86.79-.77.34-1.54.68-2.3,1.04-1.53.71-3.04,1.45-4.53,2.23-.75.38-1.49.78-2.23,1.19-.39-.35-.77-.7-1.15-1.06-.38-.36-.75-.72-1.12-1.09-4.45-4.4-8.25-9.44-11.3-14.91-1.53-2.74-2.87-5.58-4.01-8.49-.57-1.46-1.09-2.94-1.56-4.44-.16-.5-.31-1-.45-1.5-.29-1-.55-2.01-.8-3.03-.72-3.05-1.24-6.15-1.52-9.28l340.39-.62c-.84,12.33-4.67,22.85-10.71,31.61Z"/>
        <path class="cls-2" d="M359.93,18.79c-.84,12.33-4.67,22.85-10.71,31.61-.52.76-1.07,1.51-1.62,2.25-.56.73-1.13,1.45-1.72,2.16-1.18,1.42-2.42,2.78-3.72,4.1-10.72,10.81-25.4,18.04-41.74,21.79-30.09,6.91-62.38,5.26-91.9-3.34-25.34-7.39-47.25-21.18-73.46-26.13-3.14-.59-6.33-1.1-9.53-1.52-1.28-.17-2.57-.33-3.86-.46-.65-.07-1.29-.14-1.94-.2-8.54-.82-17.22-.99-25.85-.42-.86.06-1.72.12-2.58.19-4.24.35-8.46.89-12.64,1.62-.84.14-1.68.3-2.52.46-1.67.32-3.32.67-4.97,1.06-2.48.58-4.93,1.23-7.36,1.95-1.3.38-2.58.79-3.86,1.22-1.29.43-2.56.88-3.82,1.35-1.26.47-2.52.97-3.76,1.48-.62.26-1.24.52-1.86.79-3.09,1.35-6.11,2.83-9.06,4.46-.39-.35-.77-.7-1.15-1.06-.38-.36-.75-.72-1.12-1.09-4.45-4.4-8.25-9.44-11.3-14.91-1.53-2.74-2.87-5.58-4.01-8.49-.57-1.46-1.09-2.94-1.56-4.44-.16-.5-.31-1-.45-1.5-.29-1-.55-2.01-.8-3.03-.72-3.05-1.24-6.15-1.52-9.28l340.39-.62Z"/>
        <path class="cls-1" d="M41.45,63.21c2.95-1.63,5.97-3.11,9.06-4.46-3.09,1.35-6.11,2.84-9.06,4.47-.39-.35-.77-.71-1.15-1.07.38.36.76.71,1.15,1.06Z"/>
        <path class="cls-1" d="M71.17,51.96c1.65-.39,3.3-.74,4.97-1.06-1.66.32-3.32.67-4.97,1.06Z"/>
        <path class="cls-1" d="M78.66,50.44c4.18-.73,8.4-1.27,12.64-1.62-4.24.36-8.46.89-12.64,1.62Z"/>
        <path class="cls-1" d="M119.73,49.05c-8.55-.81-17.23-.98-25.85-.42,8.63-.57,17.31-.4,25.85.42Z"/>
        <path class="cls-4" d="M277.49,102.87c-3.5,6.25-4.29,13.41-6.15,20.17-21.65,79.05-139.05,79.72-162.51,2.18-3.32-10.98-3.95-20.98-11.74-30.3-10.46-12.52-22.28-13.86-36.31-19.61-.39-.16-.94-.04-.81-.6,5.51-1.72,11.06-3.48,16.72-4.7,22.44-4.89,47.25-3.69,69.19,3.05,13.8,4.24,26.49,11.3,39.98,16.34,29.22,10.92,60.38,15.79,91.63,13.47Z"/>
        <path class="cls-2" d="M255.96,341.29c.03.11,0,.22-.1.32-8.84,1.42-17.8,1.6-26.73,2.05-24.24,1.22-48.41,1.21-72.63.39-9.31-.31-19.33-.36-28.54-1.66-.45-.07-5.3-.77-4.74-1.58,21.01-10.03,47.85-4.06,66.68-19.16.35.31.7.61,1.06.89.26.22.52.42.79.62.23.18.47.36.7.52.02.02.03.03.05.04.34.24.69.49,1.04.72.42.28.85.55,1.28.81.36.23.73.44,1.11.65.35.21.71.4,1.08.58.25.14.51.27.76.39.04.03.09.05.13.07.26.13.52.26.79.37.5.24,1,.46,1.51.67.36.16.72.31,1.08.44h0c.22.09.44.18.67.26.82.32,1.66.61,2.51.87.32.11.64.21.96.3.02,0,.03.01.05.01.36.11.73.22,1.09.32.32.09.63.18.95.26.95.26,1.92.49,2.89.7,1.01.23,2.02.44,3.05.63.63.12,1.27.24,1.91.35s1.28.22,1.93.32c.64.11,1.29.21,1.93.3.64.1,1.29.19,1.94.28.77.11,1.55.22,2.32.32.77.11,1.54.21,2.31.31,1.03.13,2.05.27,3.07.41.02,0,.03.01.05.01,1.03.14,2.06.28,3.08.44,1.05.15,2.08.31,3.1.49.42.06.84.13,1.26.21.32.06.65.12.99.18.29.05.58.1.87.15,2.17.4,4.54.85,6.87,1.4.34.07.68.15,1.01.24.37.09.74.18,1.11.28.73.19,1.46.4,2.16.61.7.22,1.39.44,2.04.68.65.24,1.28.5,1.87.76.03.01.08.03.14.06.35.16,1.17.53,1.79.94.15.1.28.2.39.29.06.05.11.1.16.15.03.04.07.08.09.11.02.03.05.07.06.1.03.05.05.09.05.13Z"/>
        <path class="cls-1" d="M229.13,343.66c8.93-.45,17.89-.63,26.73-2.05h0c-8.84,1.43-17.81,1.61-26.73,2.05Z"/>
        <path class="cls-1" d="M255.86,341.61c.1-.1.13-.21.1-.32.04.11.01.22-.1.32Z"/>
      </g>
    </g>
  </g>
</svg>