<?xml version="1.0" encoding="UTF-8"?>
<svg id="Calque_2" data-name="Calque 2" xmlns="http://www.w3.org/2000/svg" viewBox="0 0 373.55 376.25">
  <defs>
    <style>
      .cls-1 {
        fill: #fff;
      }

      .cls-2 {
        fill: none;
      }

      .cls-3 {
        fill: #dfdfdf;
      }

      .cls-4 {
        fill: #d7772e;
      }
    </style>
  </defs>
  <g id="PREMIERE_RANGER" data-name="PREMIERE RANGER">
    <g>
      <path d="M21.36,20.74l14.09,142.12h.01S21.36,20.74,21.36,20.74ZM49.52,309.74c.02-.3-.01-.49.03-.58-.05.09-.02.27-.03.58ZM52.83,336.6c.19.91.4,1.8.65,2.67-.24-.87-.46-1.76-.65-2.67ZM138.84,150.53c-.14-.03-.27-.06-.41-.08.31.06.62.13.93.2-.17-.04-.34-.08-.52-.12ZM149.29,153.21c-.14-.04-.29-.08-.43-.12.15.05.29.09.43.13.93.28,1.86.57,2.78.87-.92-.31-1.85-.6-2.78-.88ZM322.84,317.54c.15-1.7.33-3.4.53-5.09-.21,1.68-.38,3.38-.53,5.09Z"/>
      <path class="cls-3" d="M362.58,0L9.65.12C-3.31,4.21.25,14.89,1.06,25.09c8.54,107,20.67,213.94,31.52,320.66,4.47,16.66,18.44,28.98,35.79,30.5h237.03c14.48-1.3,26.75-10.5,32.87-23.48,5.58-11.83,5.01-25.25,6.27-38.06,8.84-89.18,17.88-178.38,25.69-267.66.94-10.66,3.17-23.12,3.32-33.58.1-6.66-4.2-12.59-10.97-13.47ZM323.37,312.45c-.2,1.69-.38,3.39-.53,5.09-.02.15-.03.29-.04.43-.09.95-.17,1.89-.25,2.84,0,.11-.02.23-.03.35-.08.93-.15,1.87-.23,2.8-.09,1.03-.18,2.05-.28,3.06-.08.97-.18,1.95-.29,2.91-.1.99-.22,1.97-.35,2.95-.15,1.12-.31,2.22-.49,3.32-.06.33-.12.65-.19.97-.05.32-.12.63-.2.94-.21.94-.47,1.84-.77,2.71-.1.29-.2.58-.31.86-.11.28-.22.55-.33.83-.3.7-.62,1.37-.98,2.02-.11.21-.23.41-.34.62,0,.01,0,.02-.02.03-.15.25-.31.51-.47.76-.2.31-.41.61-.64.91-.34.49-.72.95-1.12,1.4-.21.23-.42.47-.64.69-.2.2-.39.4-.6.59s-.42.38-.63.56c-.63.54-1.31,1.04-2.03,1.49-.96.61-1.99,1.14-3.09,1.59-.55.22-1.12.42-1.71.6-.58.18-1.19.34-1.81.48-.23.05-.47.1-.71.14-.18.04-.37.07-.56.1-.53.09-1.08.16-1.64.22l-231.58-.07c-.7-.1-1.38-.22-2.03-.37-.32-.07-.64-.15-.96-.23-.28-.07-.56-.15-.82-.23-.34-.1-.66-.21-.97-.32-.2-.06-.38-.13-.57-.21-.17-.06-.33-.12-.49-.19-.37-.15-.72-.31-1.07-.49-.18-.08-.35-.17-.52-.26-.23-.12-.46-.25-.69-.38-.16-.09-.31-.19-.46-.28-.33-.21-.65-.42-.95-.64-.15-.11-.3-.22-.45-.34-.21-.16-.42-.32-.61-.5-.2-.16-.4-.34-.59-.52-.57-.53-1.09-1.1-1.58-1.69-.32-.4-.63-.81-.92-1.24-.22-.31-.42-.64-.62-.97-.2-.34-.4-.68-.58-1.02s-.35-.7-.52-1.05c-.16-.36-.32-.72-.48-1.09-.11-.27-.22-.54-.32-.81l-.3-.84c-.19-.56-.36-1.13-.53-1.7-.25-.87-.46-1.76-.65-2.67-.35-1.61-.62-3.28-.84-4.98-.06-.4-.11-.81-.15-1.22-.09-.75-.17-1.51-.24-2.28-.06-.64-.12-1.29-.18-1.94-.11-1.29-.22-2.59-.32-3.88-.07-.86-.14-1.73-.22-2.58-.05-.59-.1-1.17-.16-1.74-.05-.58-.11-1.15-.18-1.72-.12-1.14-.26-2.25-.43-3.34-.17-1.09-.36-2.15-.59-3.18,0-.31-.02-.49.03-.58l.03-.03s.03,0,.04-.02c.03,0,.05,0,.08,0,.07,0,.16,0,.28.03.04.01.08.02.13.03.58.13,1.16.29,1.75.47,1.91.59,3.9,1.42,5.93,2.14.47.17.94.33,1.42.48,1.28.41,2.58.74,3.89.9.27.04.55.07.82.08.04.01.07.01.1.01.31.03.62.04.93.04.17,0,.35,0,.52-.01h243.25c5.25-.5,10.37-1.87,15.1-4.16-.17,1.11-.32,2.22-.45,3.34ZM326.13,277.64c-2.4,11.14-10.84,17.1-21.96,17.82l-234.53-.02c-15.14-1.08-22.79-10.67-23.41-25.49l-8.29-82.45c.19-.97,1.38-1.43,2.21-1.93,22.96-13.84,58.25-19.1,84.52-15.19,21.38,3.18,37.51,13.16,57.35,20.13,46.73,16.41,97.52,19.6,144.28,1.54,1.31-.5,8.57-4.03,9.13-3.51l-9.3,89.1ZM338.11,162.02c-8.45,4.66-17.17,8.79-26.4,11.72-38.2,12.11-81.32,9.9-119.04-3-5.53-1.89-10.92-4.2-16.28-6.59-3.13-1.39-6.25-2.81-9.38-4.18-1.79-.79-3.58-1.56-5.38-2.3-2.26-.92-4.52-1.81-6.81-2.63-.91-.33-1.83-.65-2.75-.95s-1.85-.59-2.78-.87c-.14-.04-.28-.08-.43-.13-.14-.04-.29-.08-.43-.12-.15-.05-.29-.1-.44-.13-.28-.09-.55-.17-.83-.24-.38-.11-.76-.22-1.14-.32-1.08-.29-2.17-.57-3.26-.84-.05-.01-.11-.03-.16-.04-.58-.14-1.16-.28-1.74-.41-.38-.09-.77-.18-1.16-.27-.03-.01-.07-.01-.11-.02-.08-.02-.15-.03-.23-.05-.31-.07-.62-.14-.93-.2-.09-.02-.18-.04-.27-.06l-.99-.21c-.39-.08-.79-.16-1.19-.24-2.72-.53-5.47-.99-8.24-1.38-19.48-2.72-40.03-1.83-59.07,2.57-5.38,1.24-10.64,2.77-15.72,4.57-5.95,2.11-11.6,4.91-17.49,7.15h-.01S21.36,20.74,21.36,20.74h330.64l-13.89,141.28Z"/>
      <g>
        <path class="cls-2" d="M352,20.74l-13.89,141.28c-8.45,4.66-17.17,8.79-26.4,11.72-38.2,12.11-81.32,9.9-119.04-3-5.53-1.89-10.92-4.2-16.28-6.59-3.13-1.39-6.25-2.81-9.38-4.18-1.79-.79-3.58-1.56-5.38-2.3-2.26-.92-4.52-1.81-6.81-2.63-.91-.33-1.83-.65-2.75-.95-.92-.31-1.85-.6-2.78-.88-.14-.04-.29-.08-.43-.12-.14-.04-.29-.08-.43-.12-.15-.05-.29-.1-.44-.13-.28-.09-.55-.17-.83-.24-.38-.11-.76-.22-1.14-.32-1.08-.29-2.17-.57-3.26-.84-.05-.01-.11-.03-.16-.04-.96-.23-1.92-.47-2.9-.68-.03-.01-.07-.01-.11-.02-.08-.02-.15-.03-.23-.05-.17-.04-.34-.08-.52-.12-.14-.03-.27-.06-.41-.08-.09-.02-.18-.04-.27-.06l-.99-.21c-.39-.08-.79-.16-1.19-.24-2.72-.53-5.47-.99-8.24-1.38-19.48-2.72-40.03-1.83-59.07,2.57-5.38,1.24-10.64,2.77-15.72,4.57-5.95,2.11-11.6,4.91-17.49,7.15L21.36,20.74h330.64Z"/>
        <polygon class="cls-1" points="35.46 162.85 35.45 162.86 21.36 20.74 35.46 162.85"/>
        <path class="cls-1" d="M139.36,150.65c-.31-.07-.62-.14-.93-.2.14.02.27.05.41.08.18.04.35.08.52.12Z"/>
        <path class="cls-1" d="M142.6,151.4c-.96-.23-1.92-.47-2.9-.68.39.09.78.18,1.16.27.58.13,1.16.27,1.74.41Z"/>
        <path class="cls-1" d="M152.07,154.09c-.92-.3-1.85-.59-2.78-.87-.14-.04-.28-.08-.43-.13.14.04.29.08.43.12.93.28,1.86.57,2.78.88Z"/>
        <g>
          <path class="cls-4" d="M335.43,188.54l-9.3,89.1c-2.4,11.14-10.84,17.1-21.96,17.82l-234.53-.02c-15.14-1.08-22.79-10.67-23.41-25.49l-8.29-82.45c.19-.97,1.38-1.43,2.21-1.93,22.96-13.84,58.25-19.1,84.52-15.19,21.38,3.18,37.51,13.16,57.35,20.13,46.73,16.41,97.52,19.6,144.28,1.54,1.31-.5,8.57-4.03,9.13-3.51Z"/>
          <path class="cls-2" d="M323.82,309.11c-.17,1.11-.32,2.22-.45,3.34-.21,1.68-.38,3.38-.53,5.09-.02.15-.03.29-.04.43-.09.95-.17,1.89-.25,2.84,0,.11-.02.23-.03.35-.08.93-.15,1.87-.23,2.8-.09,1.03-.18,2.05-.28,3.06-.08.97-.18,1.95-.29,2.91-.1.99-.22,1.97-.35,2.95-.15,1.12-.32,2.22-.5,3.32-.06.32-.11.65-.18.97-.06.31-.13.63-.2.94-.22.93-.48,1.84-.77,2.71-.1.29-.2.58-.31.86-.11.28-.22.55-.33.83-.3.7-.62,1.37-.98,2.02-.11.21-.23.41-.34.62,0,.01,0,.02-.02.03-.15.25-.31.51-.47.76-.2.31-.41.61-.64.91-.34.49-.72.95-1.12,1.4-.21.23-.42.47-.64.69-.2.2-.39.4-.6.59s-.42.38-.63.56c-.63.54-1.31,1.04-2.03,1.49-.96.61-1.99,1.14-3.09,1.59-.55.22-1.12.42-1.71.6-.58.18-1.19.34-1.81.48-.23.05-.47.1-.71.14-.18.04-.37.07-.56.1-.53.09-1.08.16-1.64.22l-231.58-.07c-.7-.1-1.38-.22-2.03-.37-.32-.07-.64-.15-.96-.23-.28-.07-.55-.15-.82-.23-.34-.1-.66-.21-.97-.32-.2-.06-.38-.13-.57-.21-.17-.06-.33-.12-.49-.19-.37-.15-.72-.31-1.07-.49-.18-.08-.35-.17-.52-.26-.23-.12-.46-.25-.69-.38-.16-.09-.31-.19-.46-.28-.33-.21-.65-.42-.95-.64-.15-.11-.3-.22-.45-.34-.21-.16-.42-.32-.61-.5-.2-.17-.4-.34-.59-.52-.57-.53-1.09-1.1-1.58-1.69-.32-.4-.63-.81-.92-1.24-.22-.31-.42-.64-.62-.97-.2-.34-.4-.68-.58-1.02s-.35-.7-.52-1.05c-.16-.36-.32-.72-.48-1.09-.11-.27-.22-.54-.32-.81l-.3-.84c-.19-.56-.36-1.13-.53-1.7-.24-.87-.46-1.76-.65-2.67-.35-1.61-.62-3.28-.84-4.98-.06-.4-.11-.81-.15-1.22-.09-.75-.17-1.51-.24-2.28-.06-.64-.12-1.29-.18-1.94-.11-1.29-.22-2.59-.32-3.88-.07-.86-.14-1.73-.22-2.58-.05-.59-.1-1.17-.16-1.74-.05-.58-.11-1.15-.18-1.72-.12-1.14-.26-2.25-.43-3.34-.17-1.09-.36-2.15-.59-3.18.02-.3-.01-.49.03-.58l.03-.03s.03,0,.04-.02c.03,0,.05,0,.08,0,.07,0,.16,0,.28.03.04.01.08.02.13.03.58.13,1.16.29,1.75.47,1.91.59,3.9,1.42,5.93,2.14.47.17.94.33,1.42.48,1.28.41,2.58.74,3.89.9.27.04.55.07.82.08.04.01.07.01.1.01.31.03.62.04.93.04.17,0,.35,0,.52-.01h243.25c5.25-.5,10.37-1.87,15.1-4.16Z"/>
          <path class="cls-1" d="M49.55,309.16c-.04.09,0,.28-.03.58,0-.31-.02-.49.03-.58Z"/>
          <path class="cls-1" d="M53.48,339.27c-.25-.87-.46-1.76-.65-2.67.19.91.41,1.8.65,2.67Z"/>
          <path class="cls-1" d="M323.37,312.45c-.2,1.69-.38,3.39-.53,5.09.15-1.71.32-3.41.53-5.09Z"/>
        </g>
      </g>
    </g>
  </g>
</svg>