<?xml version="1.0" encoding="UTF-8"?>
<svg id="Calque_2" data-name="Calque 2" xmlns="http://www.w3.org/2000/svg" viewBox="0 0 278.24 388.79">
  <defs>
    <style>
      .cls-1 {
        fill: #2b2b2b;
      }

      .cls-2 {
        fill: #fff;
      }

      .cls-3 {
        fill: none;
      }

      .cls-4 {
        fill: #7b0323;
      }

      .cls-5 {
        fill: #dfdfdf;
      }
    </style>
  </defs>
  <g id="PREMIERE_RANGER" data-name="PREMIERE RANGER">
    <g>
      <path class="cls-1" d="M94.31,366.99c1.66.33,3.33.63,4.98.89-1.65-.27-3.31-.57-4.98-.89ZM101.76,368.27c-.82-.13-1.64-.26-2.47-.39.83.14,1.66.27,2.48.4.64.1,1.27.19,1.91.28-.64-.1-1.28-.19-1.92-.29ZM176.3,368.27c-1.9.28-3.8.55-5.72.79,1.92-.23,3.83-.5,5.73-.78.95-.14,1.91-.29,2.88-.45-.97.15-1.94.3-2.89.44ZM228.17,92.24c1.22-.42,2.43-.88,3.63-1.37-1.2.48-2.41.94-3.63,1.37ZM236.54,88.74c1.24-.6,2.47-1.25,3.68-1.93-1.21.68-2.44,1.32-3.68,1.93ZM242.04,85.77c1.19-.71,2.38-1.46,3.54-2.24-1.17.78-2.35,1.52-3.54,2.24ZM257.24,39.09c-.02-.11-.06-.26-.1-.43.04.17.07.31.09.42.35,1.64.68,3.29.99,4.96-.3-1.67-.63-3.31-.98-4.95Z"/>
      <path class="cls-5" d="M270.77,21.29c-2.22-7.6-4.85-20.52-14.3-21.29H23.14c-9.94-.19-12.28,9.77-14.69,17.42C-6.31,64.42-2.53,116.77,26.13,157.6c23.65,33.69,62.62,56,104,58.3v116.07c-12.05.3-24.19,1.4-36.05,3.6-10.83,2.02-36.61,7.85-38.52,21.07-2.52,17.44,17.41,23.59,30.78,26.67,28.38,6.54,62.35,6.91,91.13,2.77,12.49-1.79,40.15-6.99,44.76-20.63,6.95-20.57-25.78-27.78-39.79-30.26-11.32-2-23.03-2.92-34.51-3.22v-116.07c47.46-2.52,90.11-30.74,112.65-72.09,20.55-37.67,22.08-81.72,10.19-122.52ZM175.92,352.16c.86.13,1.73.27,2.61.42.87.14,1.76.29,2.64.44.78.14,1.56.28,2.34.43l.63.12c.79.16,1.59.32,2.38.5,3.32.74,6.61,1.65,9.71,2.86.38.13.75.28,1.12.44.83.34,1.65.71,2.45,1.11.27.13.54.26.8.41.31.15.62.32.93.5.13.06.25.13.37.21.46.26.91.53,1.35.81-.37.22-.74.44-1.11.65-.21.12-.43.24-.65.35-.35.19-.7.37-1.06.55-.23.12-.46.23-.7.33-.18.1-.37.18-.56.27-.23.1-.47.21-.71.31-.49.21-.98.41-1.47.6-.53.21-1.07.41-1.61.6-.56.2-1.12.38-1.69.56-.42.13-.85.26-1.27.39-.07.02-.15.04-.22.06-.21.06-.42.12-.62.18-.35.1-.69.19-1.04.28-.21.06-.43.11-.65.17-.46.12-.93.23-1.4.34-.58.14-1.16.27-1.75.4-.88.19-1.76.36-2.64.53-.66.13-1.32.24-1.98.36-.49.09-.98.17-1.47.25-.49.08-.98.16-1.46.24-.97.16-1.93.31-2.88.45-1.9.28-3.81.55-5.73.78-.96.12-1.93.24-2.89.35-.97.11-1.94.21-2.91.31-2.13.22-4.28.41-6.43.57-.97.08-1.95.14-2.93.21-1.22.08-2.43.14-3.65.2-1.88.1-3.77.17-5.66.22-.06.01-.12.01-.18.01-.47,0-.93.03-1.4.04-.71.01-1.42.03-2.14.03-1.2.02-2.39.03-3.59.03-.98,0-1.96-.01-2.94-.02-.94-.01-1.89-.03-2.84-.05-1.04-.02-2.07-.05-3.1-.09-.94-.03-1.89-.07-2.84-.11-.04,0-.08,0-.12-.01-1.51-.06-3.02-.15-4.52-.24h-.03c-1.49-.1-2.97-.22-4.46-.34-1.61-.12-3.2-.27-4.8-.44-.08-.01-.17-.01-.25-.03-1.44-.15-2.88-.31-4.3-.48h-.03c-1.42-.18-2.83-.37-4.24-.57-.21-.02-.43-.05-.65-.09-.64-.09-1.27-.18-1.91-.28-.82-.13-1.65-.26-2.48-.4-1.65-.26-3.32-.56-4.98-.89-.83-.17-1.66-.34-2.49-.52-2.61-.57-5.2-1.24-7.73-2.06-.38-.12-.75-.24-1.12-.37-.4-.13-.8-.27-1.19-.42-.32-.11-.63-.23-.94-.35-.85-.33-1.69-.67-2.51-1.04-.47-.21-.94-.42-1.4-.64-.66-.31-1.3-.64-1.93-.98h-.01c-.04-.06-.05-.14-.02-.22.01-.03.03-.06.05-.09.01-.03.03-.06.05-.09.06-.07.13-.14.21-.21.07-.07.15-.13.24-.21.18-.12.38-.25.56-.36.14-.09.27-.16.37-.21.02-.01.03-.02.05-.03.05-.03.09-.05.12-.07.21-.11.42-.22.64-.32.39-.21.8-.4,1.21-.58.27-.12.54-.25.82-.37.94-.41,1.92-.8,2.95-1.16.37-.13.74-.26,1.11-.39.38-.13.76-.25,1.15-.38.77-.24,1.57-.48,2.37-.71.07-.01.15-.04.22-.06.56-.15,1.13-.31,1.71-.46.58-.15,1.16-.3,1.76-.43,1.18-.29,2.38-.56,3.61-.81s2.47-.49,3.72-.71c1.25-.23,2.52-.43,3.79-.63,1.28-.19,2.56-.37,3.85-.54,1.28-.17,2.56-.33,3.84-.47.09-.01.17-.02.25-.03.49-.05.97-.11,1.46-.16,2.24-.23,4.47-.44,6.63-.61,1.26-.1,2.49-.19,3.69-.28.04.01.07,0,.1,0,.43-.03.85-.06,1.27-.08.44-.03.87-.06,1.3-.08,1.14-.07,2.25-.13,3.33-.18.54-.02,1.07-.05,1.59-.07,1.04-.05,2.04-.09,3-.12.63-.02,1.25-.04,1.89-.05.63,0,1.26-.03,1.89-.04,13.33-.22,27.05.71,40.15,2.76ZM190.37,186.95c-54.82,25.82-120.26,6.65-152.63-44.06-10.99-17.23-17.76-37.12-19.78-57.52.18-.6,5.94-2.33,7.02-2.67,25.56-7.99,49.87-7.52,75.07,1.37,29.52,10.4,55.16,26.23,87.2,30.03,25.76,3.05,50.35-2.49,71.33-17.75-6.45,38.66-32.76,73.9-68.21,90.6ZM260.32,70.81c-4.55,4.96-9.48,9.2-14.74,12.72-1.16.78-2.35,1.53-3.54,2.24-.6.36-1.21.71-1.82,1.04-1.21.68-2.44,1.33-3.68,1.93h-.01c-.39.19-.78.38-1.17.56-.78.37-1.57.73-2.37,1.07-.39.17-.79.33-1.19.5-1.2.49-2.41.95-3.63,1.37-.41.15-.82.29-1.23.42-1.3.44-2.62.85-3.95,1.21-.01,0-.01,0-.02,0-2.01.56-4.04,1.04-6.1,1.43-8.72,1.71-17.89,2.04-27.34,1.05-3.13-.33-6.22-.81-9.29-1.41-1.02-.21-2.04-.42-3.06-.65-.51-.11-1.01-.23-1.52-.35-1.52-.37-3.03-.76-4.54-1.17-12.05-3.33-23.73-8.3-35.37-13.37-.98-.43-1.95-.86-2.92-1.29-1.93-.84-3.87-1.69-5.81-2.52-1.95-.84-3.89-1.68-5.83-2.5-1.67-.7-3.33-1.39-5-2.06-7.11-2.87-14.27-5.47-21.56-7.46-25.17-6.84-52.54-5.67-77.08,2.99.27-11.38,2.01-22.67,4.81-33.69.51-2,1.05-4,1.63-5.98.57-1.98,1.18-3.95,1.82-5.92.32-.98.65-1.96.98-2.93l223.89-.51c.14.03.32.27.53.7.06.12.12.25.19.4.04.08.07.15.1.23.06.17.13.34.21.53.07.18.14.38.22.59.11.31.23.65.35,1,.06.17.12.34.17.52.05.16.11.32.16.49.08.24.16.5.24.76,0,0,.01.01.01.02.01.02.02.05.02.08.07.22.14.44.21.67s.14.47.21.7l.21.72.03.09c.56,1.91,1.13,3.98,1.65,5.94.14.5.27.98.39,1.46.02.08.04.15.06.23.12.48.24.95.36,1.4s.23.89.33,1.3c.02.05.03.1.04.15.08.32.15.62.23.9.04.14.07.28.1.41.18.72.32,1.33.42,1.76.01.03.02.06.02.08.04.17.08.32.1.43.35,1.64.68,3.28.98,4.95.11.55.21,1.1.3,1.66.2,1.11.38,2.23.55,3.35,1.1,7.21,1.67,14.56,1.25,21.76Z"/>
      <path class="cls-4" d="M258.58,96.35c-6.45,38.66-32.76,73.9-68.21,90.6-54.82,25.82-120.26,6.65-152.63-44.06-10.99-17.23-17.76-37.12-19.78-57.52.18-.6,5.94-2.33,7.02-2.67,25.56-7.99,49.87-7.52,75.07,1.37,29.52,10.4,55.16,26.23,87.2,30.03,25.76,3.05,50.35-2.49,71.33-17.75Z"/>
      <path class="cls-3" d="M260.32,70.81c-4.55,4.96-9.48,9.2-14.74,12.72-1.17.78-2.35,1.52-3.54,2.24-.6.36-1.21.71-1.82,1.04-1.21.68-2.44,1.32-3.68,1.93h-.01c-.39.19-.78.38-1.17.56-.78.37-1.57.73-2.37,1.07-.39.17-.79.33-1.19.5-1.2.48-2.41.94-3.63,1.37-.41.15-.82.29-1.23.42-1.3.44-2.62.85-3.95,1.21-.01,0-.01,0-.02,0-2.01.56-4.04,1.04-6.1,1.43-8.72,1.71-17.89,2.04-27.34,1.05-3.13-.33-6.22-.81-9.29-1.41-1.02-.21-2.04-.42-3.06-.65-.51-.11-1.01-.23-1.52-.35-1.52-.37-3.03-.76-4.54-1.17-12.05-3.33-23.73-8.3-35.37-13.37-.98-.43-1.95-.86-2.92-1.29-1.93-.84-3.87-1.69-5.81-2.52-1.95-.84-3.89-1.68-5.83-2.5-1.67-.7-3.33-1.39-5-2.06-7.11-2.87-14.27-5.47-21.56-7.46-25.17-6.84-52.54-5.67-77.08,2.99.27-11.38,2.01-22.67,4.81-33.69.51-2,1.05-4,1.63-5.98.57-1.98,1.18-3.95,1.82-5.92.32-.98.65-1.96.98-2.93l223.89-.51c.14.03.32.27.53.7.06.12.12.25.19.4.04.08.07.15.1.23.06.17.13.34.21.53.07.18.14.38.22.59.11.31.23.65.35,1,.06.17.12.34.17.52.05.16.11.32.16.49.08.24.16.5.24.76,0,0,.01.01.01.02.01.02.02.05.02.08.07.22.14.44.21.67s.14.47.21.7l.21.72.03.09c.56,1.91,1.13,3.98,1.65,5.94.14.5.27.98.39,1.46.02.08.04.15.06.23.12.48.24.95.36,1.4s.23.89.33,1.3c.02.05.03.1.04.15.08.32.15.62.23.9.04.14.07.28.1.41.18.72.32,1.33.42,1.76.01.03.02.06.02.08.04.17.07.31.09.42.35,1.64.68,3.29.99,4.96.11.55.21,1.1.3,1.66.19,1.11.38,2.23.55,3.35,1.1,7.21,1.67,14.56,1.25,21.76Z"/>
      <path class="cls-2" d="M231.8,90.87c-1.2.49-2.41.95-3.63,1.37,1.22-.43,2.43-.89,3.63-1.37Z"/>
      <path class="cls-2" d="M240.22,86.81c-1.21.68-2.44,1.33-3.68,1.93,1.24-.61,2.47-1.25,3.68-1.93Z"/>
      <path class="cls-2" d="M245.58,83.53c-1.16.78-2.35,1.53-3.54,2.24,1.19-.72,2.37-1.46,3.54-2.24Z"/>
      <path class="cls-2" d="M258.22,44.04c-.31-1.67-.64-3.32-.99-4.96-.02-.11-.05-.25-.09-.42.04.17.08.32.1.43.35,1.64.68,3.28.98,4.95Z"/>
      <path class="cls-3" d="M203.25,360.41c-.37.22-.74.44-1.11.65-.21.12-.43.24-.65.35-.35.19-.7.37-1.06.55-.23.12-.46.23-.7.33-.18.1-.37.18-.56.27-.23.1-.47.21-.71.31-.49.21-.98.41-1.47.6-.53.21-1.07.41-1.61.6-.56.19-1.12.38-1.69.56-.42.13-.85.26-1.27.39-.07.02-.15.04-.22.06-.21.06-.42.12-.62.18-.35.1-.69.19-1.04.28-.21.06-.43.11-.65.17-.46.12-.93.23-1.4.34-.58.14-1.16.27-1.75.4-.88.19-1.76.36-2.64.53-.66.13-1.32.24-1.98.36-.49.09-.98.17-1.47.25-.49.08-.98.16-1.46.24-.97.15-1.94.3-2.89.44-1.9.28-3.8.55-5.72.79-.96.12-1.93.24-2.89.35-.97.11-1.94.21-2.91.31-2.13.22-4.28.41-6.43.57-.97.08-1.95.14-2.93.21-1.22.08-2.43.14-3.65.2-1.88.1-3.77.17-5.66.22-.06.01-.12.01-.18.01-.47,0-.93.03-1.4.04-.71.01-1.42.03-2.14.03-1.2.02-2.39.03-3.59.03-.98,0-1.96-.01-2.94-.02-.94-.01-1.89-.03-2.84-.05-1.04-.02-2.07-.05-3.1-.09-.94-.03-1.89-.07-2.84-.11-.04,0-.08,0-.12-.01-1.51-.06-3.02-.15-4.52-.24h-.03c-1.49-.1-2.97-.22-4.46-.34-1.61-.12-3.2-.27-4.8-.44-.08-.01-.17-.01-.25-.03-1.44-.15-2.88-.31-4.3-.48h-.03c-1.42-.18-2.83-.37-4.24-.57-.21-.02-.43-.05-.65-.09-.64-.1-1.28-.19-1.92-.29-.82-.13-1.64-.26-2.47-.39-1.65-.27-3.31-.57-4.98-.89-.83-.17-1.66-.34-2.49-.52-2.61-.57-5.2-1.24-7.73-2.06-.38-.12-.75-.24-1.12-.37-.4-.13-.8-.27-1.19-.42-.32-.11-.63-.23-.94-.35-.85-.33-1.69-.67-2.51-1.04-.47-.21-.94-.42-1.4-.64-.66-.31-1.3-.64-1.93-.98-.05-.06-.05-.14-.03-.22.01-.03.03-.06.05-.09.01-.03.03-.06.05-.09.06-.07.13-.14.21-.21.07-.07.15-.13.24-.21.18-.12.38-.25.56-.36.14-.09.27-.16.37-.21.02-.01.03-.02.05-.03.05-.02.09-.04.12-.06.21-.11.42-.22.64-.33.39-.19.8-.39,1.21-.58.27-.12.54-.25.82-.37.94-.4,1.93-.79,2.95-1.16.37-.13.74-.26,1.11-.39.38-.13.76-.25,1.15-.38.77-.24,1.57-.48,2.37-.71.07-.01.15-.04.22-.06.56-.15,1.13-.31,1.71-.46.58-.15,1.17-.29,1.76-.43,1.18-.29,2.38-.56,3.61-.81s2.47-.49,3.72-.71c1.26-.22,2.52-.43,3.79-.63,1.28-.19,2.56-.37,3.85-.54,1.28-.17,2.56-.33,3.84-.47.09-.01.17-.02.25-.03.49-.05.97-.11,1.46-.16,2.24-.23,4.47-.44,6.63-.61,1.26-.1,2.49-.19,3.69-.28.04.01.07,0,.1,0,.43-.03.85-.06,1.27-.08.44-.03.87-.06,1.3-.08,1.14-.07,2.25-.13,3.33-.18.54-.02,1.07-.05,1.59-.07,1.04-.04,2.04-.08,3-.11l1.89-.06c.63,0,1.26-.03,1.89-.04,13.33-.22,27.05.71,40.15,2.76.86.13,1.73.27,2.61.42.87.14,1.76.29,2.64.44.78.14,1.56.28,2.34.43l.63.12c.79.16,1.59.32,2.38.5,3.32.74,6.61,1.65,9.71,2.86.38.13.75.28,1.12.44.83.34,1.65.71,2.45,1.11.27.13.54.26.8.41.31.15.62.32.93.5.13.06.25.13.37.21.46.26.91.53,1.35.81Z"/>
      <path class="cls-2" d="M99.29,367.88c-1.65-.26-3.32-.56-4.98-.89,1.67.32,3.33.62,4.98.89Z"/>
      <path class="cls-2" d="M103.68,368.56c-.64-.09-1.27-.18-1.91-.28-.82-.13-1.65-.26-2.48-.4.83.13,1.65.26,2.47.39.64.1,1.28.19,1.92.29Z"/>
      <path class="cls-2" d="M179.19,367.83c-.97.16-1.93.31-2.88.45-1.9.28-3.81.55-5.73.78,1.92-.24,3.82-.51,5.72-.79.95-.14,1.92-.29,2.89-.44Z"/>
    </g>
  </g>
</svg>